<?xml version="1.0" encoding="utf-8"?>
<!-- Generator: Adobe Illustrator 22.1.0, SVG Export Plug-In . SVG Version: 6.00 Build 0)  -->
<svg version="1.1" id="Layer_1" xmlns="http://www.w3.org/2000/svg" xmlns:xlink="http://www.w3.org/1999/xlink" x="0px" y="0px"
	 viewBox="0 0 864 864" style="enable-background:new 0 0 864 864;" xml:space="preserve">
<style type="text/css">
	.st0{fill:#262124;}
</style>
<g id="Layer_1_1_">
</g>
<path class="st0" d="M165,532.6c0-0.6,0-1.2,0-1.8c0.2-0.6-0.3-0.8-0.7-0.9l0,0c-0.7-9.2-3.4-17.9-6.4-26.5
	c-2.4-6.9-6.2-13.2-9.9-19.6c-2-3.5-2.6-7.7-4.7-11.2c-0.4-0.6-1.3-2.6,0.4-3.5c1.5-0.8,2.9-0.1,4,0.9c4.9,4.4,10.1,8.7,13.7,14.2
	c7.7,11.6,16.2,22.6,24.1,34.1c2.8,4.1,3.1,7.6,3.5,11.9c0.5,4.7,1.7,9.4,2.7,14c0.3,1.3,1.2,2.2,2.8,2.2c3,0.1,6,0.4,7.2,4
	c0.2,0.5,1.7,0.5,2.7,0.8c-4.6,4-8.1,9.4-4.5,16.5c5.5,10.7,4.2,22.4,2,33.6c-2.2,11-5.7,21.8-8.7,32.7c-0.3,1.1-0.8,2.2-1.4,3.2
	c-0.5,0.9-0.5,2.7-2.1,2.2c-1.2-0.4-2.2-1.3-2-3c1.1-11.8-2.1-23.2-4.1-34.6c-0.9-5.3-1.3-10.8-0.8-16.2c0.5-5.6-2-9.7-4.7-14
	c-0.9-1.5-2-2.9-3-4.3c-2.3-2.8-7.4-3-9.4-0.3c-3.6,4.8-7.8,9.1-12.2,13.1c-0.4,0.2-0.7,0.5-1.1,0.7c-0.3,0-0.5,0-0.7,0.2
	c-0.6-0.1-1.1-0.2-1.7-0.3c0-1.4,0-2.8,0-4.2c0.2-0.3,0.5-0.5,0.7-0.8c-0.3-0.1-0.5-0.2-0.8-0.3c-0.2-3-1.5-5.7-2.3-8.4
	c-1.1-4.3-3.4-4.9-6.9-4.9c-0.6,0-1.1-0.2-1.2-1.2c7.4-2.5,15.1-3.4,23-3.2c5.3,0.2,6.1-1,5.9-6.2c-0.2-4.9-2.2-9.3-3.2-13.9
	C165.2,536.2,164.8,534.5,165,532.6z"/>
<path class="st0" d="M705.3,428c-3.2,2.9-7.5,4.4-10.4,7.8c-3.4,4-3.2,5.5,1.7,6.6c3.6,0.8,6.9,3.7,11.1,1.9
	c1.5-0.7,1.8,1.5,1.9,2.3c0.4,2.6-1.8,1.9-3.2,2.3c-4.9-1-9.6-2.6-14.6-2.8c-4.3-0.1-8.1,1-11.7,3.1c-2.7,1.5-5.3,3.1-8.1,4.3
	c-5.5,2.3-7.8,6.2-6.4,12c2.1,8.7,4.7,17.2,6.9,25.8c2.5,9.8,4.8,19.6,7.2,29.4c0.7,2.9-0.4,3.4-3,2.6c-3.4-1.1-5.9-3.4-7.4-6.5
	c-2.4-4.8-5-9.7-6.7-14.8c-3.5-10.3-9.8-19.7-11.6-30.6c-0.7-4-1.1-8.1-1.6-12.2c-0.3-2.3-1.3-3.6-3.6-4.3c-2.4-0.8-5.2-1.6-6.4-4.1
	c-1.1-2.2-3.3-0.3-5-1.9c5.9-0.9,4.5-10,12.8-8.5c-3.9-4.1-1.9-8.1-2.7-11.8c-2.9-13.7-2.1-27.8-2.5-41.7
	c-0.2-6.6-0.4-13.8,3.5-19.9c0.5-0.7,0.8-1.6,1.3-2.3c0.5-0.7,1-1.6,2-1.4c1.1,0.3,1.5,1,1.7,2.2c2,12.3,4.2,24.6,6.2,36.8
	c1.3,7.7,2.2,15.4,3.4,23c1,6.4,4.3,9.2,10.7,9.2c2.9,0,5.9,0.1,8.8,0.3c7.1,0.6,13.4-1,19.2-5.3C700.6,428.7,702.3,425.1,705.3,428
	z"/>
<path class="st0" d="M535.7,394.3c-1.6-1.8-3.2-3.6-4.8-5.3c-0.7,4.2,1.4,7.4,2.2,10.8c-0.3,0.2-0.5,0.4-0.8,0.6
	c-7-11.1-14.6-21.8-23.5-31.6c-1.4-1.6-2.2-2-4.3-1.4c-4.2,1.3-8.6,3.1-12.8,2.9c-7.8-0.4-12.1,4.9-17.1,9
	c-7.3,6.1-14.5,12.3-22.3,18.2c-2.6-4.4-1.1-8.5,1.1-12.2c9.7-16.1,23.9-26.6,41.9-31.8c2.3-0.7,4-1.3,3.5-4.3
	c-0.5-2.6,2.6-4.1,2.5-6.8c0-0.1,0.9-0.4,1.1-0.3c2.8,2.4,7.2,1.1,9.7,3.5c2.7,2.7,5.4,2.1,8.3,1.3c4.6-1.1,9-0.3,13.2,1.6
	c5.1,2.3,10.5,4.1,15.2,7c11.9,7.5,24.9,13.1,35.6,22.4l0.1,0.1c1.5,3.6-1.8,1.7-2.2,1.5c-3.5-1.6-7.1-3.3-10.4-5.3
	c-5-2.9-10.2-5.3-15.8-6.8c-0.6-0.3-1.2-0.6-1.8-0.9c-5.7-2.2-11.4-4.3-17.1-6.6c-3.9-1.6-7.4,0.2-11.1,0.9
	c-1.1,0.2-1.2,0.9-0.9,1.9c2.2,6.3,2.9,13,4.5,19.5c1,4,4.4,7.4,6.7,11.1C536.4,393.8,536.1,394,535.7,394.3z"/>
<path class="st0" d="M145.8,437.2c-1.5-1.6-6.6,0.2-4.4-4.8c3.2,0.3,6.3,0.5,9.6-0.2c2.3-0.5,5.1-0.8,7.4,1.3c2,1.8,4.1-1.1,6.5-0.7
	c3.5,0.7,7.4,2.1,10.4,2.2c6.2,0,11.2,2.8,16.7,4.1c11.1,2.6,20.7,7.7,27.1,17.6c1,1.6,1.7,1.1,3,0.5c3.3-1.6,7.3-1.5,10.1-4.7
	c-1.7,4.1,0.4,8.7-2.8,12.2c-1.1,1.2,0.2,2.8,1.6,3.8c6.3,4.2,10,9.8,11.6,17.5c1.9,8.8,4.7,17.4,5.9,26.5c0.6,4.6,0.2,9.1,0.4,13.6
	c0,0.9,0.5,2.2-1.2,2.3c-1.2,0.1-2.4,0.2-3-1.2c-0.4-1.1-1-2.2-1.1-3.3c-0.8-10.4-6.9-19.1-9.5-28.9c-2.3-8.8-8.4-12.6-16.2-14.5
	c-3.7-0.9-7.3,1.1-10.9,2.5c-7.1,2.7-11.9,8.4-17.8,12.9c-0.8-2,1.2-2.4,1.5-3.6c1-0.6,1.6-1.4,1.2-3c-0.6,0.7-1.2,1.4-1.8,2.1
	c-2.9,1.2-4.4,4.7-8.5,5.5c4.2-6.2,10-9.9,15-14.4c9.4-8.5,9.9-12,2.7-23.9c-0.2-0.3-0.4-0.7-0.7-1v0.1c-0.2-1.8-1.4-2.6-2.8-3.4
	l-0.1-0.1c-0.3-0.2-0.5-0.4-0.8-0.6c-0.6-0.4-1.2-0.8-1.7-1.2c-0.3-0.3-0.6-0.6-1-0.8l0,0c-0.3-0.2-0.6-0.5-0.8-0.7
	c-0.9-0.7-1.8-1.3-2.7-2c-0.3-0.2-0.6-0.4-0.9-0.6c-0.3-0.1-0.6-0.2-0.9-0.3c-0.3-0.2-0.6-0.4-0.9-0.6c-0.2-0.2-0.5-0.3-0.8-0.3
	c-0.3-0.2-0.6-0.4-1-0.6c-0.3-0.1-0.6-0.2-0.8-0.2c-0.4-0.4-0.8-1.1-1.5-0.4l0.2,0.2L182,446c-0.3-0.2-0.6-0.3-0.8-0.5
	c-0.4-0.3-0.9-0.5-1.3-0.8c-0.6-0.1-1.2-0.2-1.7-0.3c-2.1-0.8-4.2-1.5-6.2-2.3c-1-0.1-2-0.2-3-0.4c-0.5-0.2-0.9-0.4-1.4-0.6
	c-0.6-0.1-1.2-0.2-1.7-0.3c-4.4-2.5-9.4-2.1-14.2-2.5c-0.9,0-1.7-0.1-2.6-0.1c-0.1-0.5-0.4-0.8-0.9-0.7
	C147.5,437.3,146.7,437.3,145.8,437.2z"/>
<path class="st0" d="M838.2,407.9c1.6-2,3-4.3,6.5-5.4c-1.2,5.5-4.4,9.3-6.2,13.7c-5.3,13.1-12.4,25.5-17.8,38.6
	c-0.4,1-0.7,2-0.4,2.9c1.4,5.1-0.1,10.1-0.6,15.1c-0.3,2.4,0.5,3.5,2.7,4.7c5.7,3.2,12,5,17.9,7.9c3,1.5,7.3,1.1,10.9,2.6
	c-1,1.8-2.6,1.2-3.9,0.9c-5.5-1-11-0.3-16.6-1.3c-4-0.7-7.6,2.5-11.4,3.9c-7,2.5-14.5,2-21.7,3.6c-3.8,0.9-7.8-1.7-8.1-6.8
	c0-1.2,0-2.3,0.1-3.5c1-1.8,0.5-3.2-1-4.5c-0.3-0.3-0.6-0.6-0.9-0.9c-6.1-7.4-12.4-14.6-18.3-22.2c-6.3-8.1-10.5-17.5-16.1-26
	c-0.7-1-0.5-2.5-0.8-4.2c4.2,3.2,5.3,8.6,9.5,11.2c6.6,9.8,15,18,23.1,26.5c3.8,4,8.4,6.8,13.1,9.5c2.4,1.4,3,0.3,3.6-1.6
	c2.1-6.6,3.9-13.4,7.3-19.5c0.3-0.4,0.5-0.7,0.8-1.1c0.9-1.8,1.8-3.5,2.7-5.3c0.4-0.6,0.8-1.2,1.2-1.8c3.2-5.9,6.4-11.7,9.5-17.6
	c0.5-0.8,1-1.5,1.6-2.3l0,0c0.4-0.7,0.8-1.4,1.3-2C829.9,418,833.6,412.6,838.2,407.9z"/>
<path class="st0" d="M490.1,152.9c0.6,0.1,1.1,0.2,1.7,0.3c7.6,3,15.7,5,22.6,9.5c8.2,5.4,17.1,8.7,26.5,11c1.9,0.5,3.8,1.2,5.5,3.2
	c-4.5-1-8.6-2-13.7-3.1c4.1,3.5,8.4,4.7,13,7.7c-6.2-0.7-10.6-3.1-15.1-4.9c-6.7-2.7-13.6-0.9-20.4-1.6c-2.4-0.3-1.7,1.4-1.1,2.9
	c2.2,5.2,6.2,8.7,10.9,11.5c1.5,0.9,3,1.9,3.6,4.1c-8.7-2.5-15.1-8.5-22.6-13.8c0.5,4.3,2.3,7.1,4.9,9.3c7.7,6.7,13.6,15,21,21.9
	c3.6,3.4,4.9,8.2,7.6,12.2c1,1.5,2.1,2.9,3,4.6c-4.8-2-8.7-5.6-12.3-9c-9-8.4-19.2-15.1-28.5-23.1c-6.2-5.4-11.9-11.2-15.9-18.5
	c-0.5-1-1.5-1.9-1.2-3.2c0.7-4.1-1.6-6.2-5.1-7.3c-2.6-0.9-4.1-2.9-5.5-4.9s-2.8-3.9-5.5-4.9c2.2-0.5,3.5-1.7,4.9-3.2
	c3.5-3.5,8.3-2.7,12.4-1.7C484,152.9,487,152.9,490.1,152.9z"/>
<path class="st0" d="M65.7,678.9c-11.9,2.3-23.5,6.3-35.5,7.9c-5,0.7-10.1,2.1-15.7,0.6c1.6-1.8,3.4-2.8,5.1-2.8
	c14.6-0.1,27.6-5.8,40.7-11.2c4.7-1.9,9.2-3.9,12.6-8c2.2-2.8,1.7-4.1-1.4-4.9c-6.1-1.7-12-4.7-18.8-2.7c-2.5,0.7-5.3-1.1-8.2-0.7
	c2.7-2.3,6.7-1,9.5-3.4c-2.9-3.2-6.8-0.9-10.1-2.1c4.2-4,9.1-1.8,13.3-1.1c6.9,1.3,13.4-0.1,20-1.2c4-0.6,3.1-4.6,3.1-6.7
	c0.3-16.4-3-32.1-9.6-47.1c-2.9-6.6-7.4-12.4-9.6-20.4c3.6,3.5,6.1,6.7,8.3,10.2c9.8,15.5,19.9,30.8,25.7,48.5
	c1.3,3.9,1.3,7.8,1.2,11.7c0,2.5,0.5,4.2,3,5.1c4.7,1.8,8,5.4,11.1,9.1c-7.1,1.6-13.7,5.1-21.2,5.1c-0.6,0-1.4,0.5-1.9,1
	C81.3,672.1,73.4,675.4,65.7,678.9z"/>
<path class="st0" d="M746,522.1c6.6,3.8,13.3,7.4,21.3,7.2c-3,1.9-6.3-0.1-9.5,1c3.3,2.3,8.1,1.1,11.4,4.8
	c-6.5,0.7-11.9-3.2-17.7-1.4c-2-0.7-4-1.2-6.2-0.9c-0.6-0.1-0.8,0.3-0.9,0.8c-0.9,0.6-2,1.1-1.6,2.3c1.7,6.1,1.2,12.8,5.2,18.3
	c3,4.1,5.8,8.4,8.7,12.7c-8.5-0.7-12.1-7.6-16.5-13.1c-4.1-5.1-7.7-10.6-11.5-15.9c-0.2-0.6-0.4-1.2-0.6-1.7
	c-0.7-6-4.9-9.9-8.8-13.8c-0.7-0.7-1.5-0.3-0.1-1.3c2.5-1.8,4.9-3.6,8.2-3.6c0.1-2.6-1.5-4.4-2.4-6.1c-2.4-4.5-1.1-8.1,1-11.9
	c2.5-4.4,5.5-8.3,10.2-10.4c1-0.4,4-2.8,3.9,1.4c-1.3,1.3-2.1,2.7-0.9,4.5c0,0.9,0,1.7,0,2.6c-0.2,0.2-0.3,0.5-0.3,0.7
	c-0.2,0.6-0.3,1.1-0.5,1.7c-0.2,0.4-0.4,0.7-0.6,1.1c-0.1,0.9-0.2,1.8-0.3,2.7c0,0.1-0.1,0.2-0.1,0.3c0,0.2,0.1,0.4,0.2,0.6
	c-0.3,1.6,0.5,3,1,4.4c0.1,2.1,1.4,3.7,2.5,5.4c0.3,0.8,0.7,1.7,1,2.5c0,1.4,0.2,2.8,1.6,3.6C744,521.3,744.8,522,746,522.1z"/>
<path class="st0" d="M235.9,335.8c1.5-1.8,1.4-4.2,2.1-6.3c4.3-13,12.4-21.3,26.8-21.8c2.3-0.1,2.5-1.7,2.7-3.2
	c0.5-3.1,2.2-3.9,5-3.1c1.1,0.3,2.8,0.9,2.8-0.7c-0.2-5.1,5-7.8,5.2-12.6c0.1-0.9,0.3-1.7,0.5-2.5l-0.2-0.2l0.2,0.2
	c9.1-10,27.5-13.6,36.3-6.8c-4.8,0.8-9.4,1.4-13.9,2.2c-3.6,0.6-6.4,2.4-8.7,5.4c-3.7,4.9-8.2,9.2-11.7,14.3
	c-3.2,4.6-3.1,9.9,0.6,14.4c0.9,1,1.7,2,1.9,3.4c-1.2,1.7-2.2-0.9-3.4-0.2c0.6,1.6,1.1,3.1,2,5.6c-4-2.8-6.5-6-10.1-8.1
	c-2.4-1.4-4-1.4-6.3-0.6c-6.9,2.5-12.2,7.6-18.5,10.9c-4,2.1-6.4,5.3-7.6,9.5c-0.9,1.4-1.4,2.9-1.3,4.6c-0.2,0.5-0.4,1.1-0.6,1.6
	c-1.5,0.8-2.2,2-1.9,3.7c-0.4,0.5-0.7,1-1.1,1.6c-0.2,0-0.4,0-0.7,0.1c-1.5-2.8-0.5-5.8-1.1-8.7l0,0c0.5-0.1,0.9-0.3,0.7-0.9
	C235.8,336.9,235.8,336.4,235.9,335.8z"/>
<path class="st0" d="M263.8,180.6c-0.3-7,0.2-14-2.3-20.7c-1.4-3.8-1.9-7.9-1.6-12.8c2.3,2.8,2.8,5.5,3.2,8.1
	c1.6,11.9,3.8,23.8,4.3,35.8c0.5,12.4-1.3,24.4-4.9,36.2c-0.5,1.8-0.9,3.2,0.7,5c4.9,5.7,4.3,11.3-1.2,16.2
	c-1.3,1.2-2.2,0.3-2.7-0.8c-2.1-4.7-6.7-6.3-10.8-5.8c-10.5,1.1-20.8,0-31.2-0.6c-20-1.1-40-4.5-61.2-3.2c5.8-2.1,17.6-3.1,22.9-2.9
	c4.7,0.2,9.4,0.4,14.1,0.3c13.6-0.3,27.1-2.3,40.8-0.9c8.1,0.9,16.4-0.8,24.1-4.3c1.2-0.6,1.1-1.7,1.3-2.6c1.9-9,4.2-17.9,4.2-27.3
	C263.4,193.8,264.6,187.3,263.8,180.6C263.8,180.7,263.8,180.6,263.8,180.6z"/>
<path class="st0" d="M410.9,581.8c2.9,6.2,5.6,12.4,8.6,18.5c5.5,10.8,8.8,22.3,9.8,34.4c0.4,4.9,0.9,9.7,6.3,12.3
	c3.3,1.6,3.2,3.8-0.4,5.7s-7.6,2.1-11.5,2.3c-7.6,0.5-14.8,2.6-21.9,5.2c-7.8,2.9-15.9,5-23.9,7.4c-1.9,0.6-3.9,1-6,1.1
	c11.8-9.5,28.1-8.7,40.5-17.5c-3.1-2.2-7-1.2-10.3-2.4c0-1.6,1.3-1.2,2.1-1.5c0.9-0.3,2.3,0.6,2.6-0.7c0.4-1.7-2.1-0.7-2.3-2.3
	c3.5-1.7,7.4-0.1,11-1.2c2.4-0.8,3.2-1.6,3.7-4.3c2.6-13.3,0.4-26-3.9-38.4c-1.6-4.8-4.2-9.3-6.3-14c-0.9-2-2.2-3.9-1.1-6.2
	c1.4-0.5,1.3,2.1,2.8,1.3C410.9,581.6,410.9,581.8,410.9,581.8z"/>
<path class="st0" d="M342.7,242.3c11.3-8.3,16.2-20.8,21.1-33.2c2-5,3.8-6.5,9.1-6.8c9.4-0.5,18.7-0.2,28,1.5
	c6.9,1.2,13.5-1.5,20.2-2.9c0.5-0.1,1.1-0.2,1.7,0.1c-13,7.8-27.5,6.6-41.9,6.7c0.7,3.9,1.3,7.1-2.2,10.4c-4.6,4.3-7.8,0-12-0.1
	c-1.4,5.7-6.4,9.5-10.2,13.9c-4.5,5.1-8.2,11.1-13.5,15.5c-5.5,4.5-11.4,8-18.8,10.1c0.9-2.2,2.6-2.3,3.6-3.3h0.1
	c0.6-0.4,1.3-0.8,1.9-1.2l0.3-0.2C335.7,251.1,338.8,246.2,342.7,242.3L342.7,242.3z"/>
<path class="st0" d="M435.5,575.7c-6.7-4.2-13.1-8.8-18.7-14.4c-2.2-2.2-4.4-4.4-5.9-7.1c0.2-0.2,0.4-0.4,0.7-0.6
	c0.5,0.3,1.1,0.7,1.6,1l0,0c6.6,7.2,14.7,12.3,23.5,16.5c6.5,3.1,13,6.4,20.3,7.6c3.5,0.6,7.1,1.7,9.7,3.9c3.4,2.9,6.7,0.8,10,1.1
	c1.4,0.1,1.3-1.4,1.7-2.2c6.9-11.5,11-23.9,11.9-37.3c0-0.4,0.3-0.7,0.7-1.7c1.5,3.6,0.1,6.7-0.2,9.6c-0.3,3-1.1,6-1.8,9
	c-0.7,3.1-1.6,6.2-2.4,9.3c-0.2,0.5-0.4,1.1-0.6,1.6c-0.6,3.5-2.4,6.5-4.2,9.4c-1.3,2.2-2,4.3-2.2,6.7c-0.2,3.1-1.3,6.1-4.6,6.8
	c-2.9,0.7-5.2-0.5-7.5-3c-2.2-2.4-5.8-3.8-9-4.9C450.3,584.4,443,579.9,435.5,575.7l-0.2,0.1L435.5,575.7z"/>
<path class="st0" d="M613.3,587.1c-6.2-1.4-11.3-4.8-16.2-8.3c-5.8-4.1-12-7.2-18.4-10.1c-1.5-0.7-2.3,0-3.1,0.8
	c-1.7,1.7-4.1,1.9-5.7,1c-5.8-3-9.6,0.3-12.9,3.9c-7,7.5-15.1,13.3-24,18.2c-3,1.6-6.1,3.4-9.8,2.4c10.9-3.4,20-10,27.7-18
	c4.3-4.5,8.4-9.3,11.7-14.7c1.9-3.2,10.6-3.3,13.8-0.2c1.5,1.4,3,2,4.9,2.6c6.8,2.2,11.4,7.6,16.8,11.8
	C603,580.3,607.8,584.3,613.3,587.1z"/>
<path class="st0" d="M116.5,348c4.9,4.1,9.8,8.3,14.7,12.4c4.4,3.7,8.8,7.2,14.3,9.2c2.3,0.8,3.6,0.8,4.9-1.7c1.2-2.4,3-4.5,6.2-4.4
	c1.2,0,1.1-1.1,1.4-1.8c0.7-1.9,1.1-3.9,1.8-6.2c0.6,0.7,1,0.9,0.9,1.1c-3.3,8.9-0.7,18.7-5.3,27.6c-0.9,0.1-0.1-4.6-3-1.9
	c-0.1,0.1-0.4-1.2-0.3-1.9c0.2-2.9-1.4-3.9-3.8-5.3c-12-7.2-23.3-15.5-32.5-26.3C115.9,348.5,116.2,348.3,116.5,348z"/>
<path class="st0" d="M531.7,534.4c-0.1,0.6-0.2,1.1-0.2,1.7c-0.5,1.8-1,3.6-1.6,5.3c-0.4,0.7-0.7,1.4-1.1,2.2
	c-0.9,0.9-1.8,1.9-1.5,3.3c0.6,3.1-1,4.8-3.5,6.1c-0.6,0-1.1,0-1.7,0c-2.5-0.8-3.8-2.5-5-4.8c-2.9-5.4-6.5-10.6-9.7-15.8
	c-0.4-0.6-0.8-1.1-1.2-1.7c-2.4-5.1-6.2-9.5-8.2-14.8c0.2-0.2,0.5-0.4,0.7-0.7c5.1,9.8,13.4,17.3,19.2,26.6c1.3,2,2.4-0.1,3.7,0.2
	c4.8,1.3,5.8-2.1,7.2-5.7c2.1-5.7,3.2-11.6,5.4-17.2C534.4,524.4,531.8,529.2,531.7,534.4z"/>
<path class="st0" d="M164.6,330.4c-1.5-3.4-0.7-5.8-0.9-8.1c-0.2-2.3,0-4.7,0.3-7C164.4,320,165.5,324.6,164.6,330.4z"/>
<path class="st0" d="M536.7,393.5c0.5,0.7,0.9,1.3,1.4,2c-0.3,0.3-0.6,0.6-0.8,0.9c-0.5-0.7-1-1.4-1.5-2.1
	C536.1,394,536.4,393.8,536.7,393.5z"/>
<path class="st0" d="M539.2,397c0.5,0.6,1.5,1,0.8,2.1c-0.5-0.5-1-0.9-1.6-1.4C538.7,397.5,538.9,397.2,539.2,397z"/>
<path class="st0" d="M497.9,516c-0.6-0.4-1.3-1-0.7-1.5c0.8-0.7,1,0.5,1.4,0.9C498.4,515.5,498.1,515.7,497.9,516z"/>
<path class="st0" d="M538.1,395.5c0.4,0.5,0.7,1,1.1,1.5c-0.2,0.2-0.5,0.5-0.7,0.7c-0.4-0.5-0.8-0.9-1.2-1.4
	C537.5,396,537.8,395.8,538.1,395.5z"/>
<path class="st0" d="M533.6,400.9c0.1,0.3,0.2,0.6,0.4,0.8c-0.3-0.1-0.7-0.1-1-0.2C533.1,401.3,533.3,401.1,533.6,400.9z"/>
<path class="st0" d="M532.9,401.5c-0.2-0.4-0.4-0.8-0.6-1.2c0.3-0.2,0.5-0.4,0.8-0.6c0.1,0.4,0.3,0.7,0.4,1.1
	C533.3,401.1,533.1,401.3,532.9,401.5z"/>
<path class="st0" d="M411,554.2c-0.3-0.4-0.6-0.9,0-1.3c0.1,0,0.5,0.4,0.7,0.7C411.4,553.9,411.2,554,411,554.2z"/>
</svg>
